<svg width="500" height="500" viewBox="0 0 500 500" fill="none" xmlns="http://www.w3.org/2000/svg">
<path d="M500 382.4H0V382.65H500V382.4Z" fill="#EBEBEB"/>
<path d="M449.9 398.49H428.22V398.74H449.9V398.49Z" fill="#EBEBEB"/>
<path d="M344.67 393.31H310.56V393.56H344.67V393.31Z" fill="#EBEBEB"/>
<path d="M441.12 389.21H396.59V389.46H441.12V389.21Z" fill="#EBEBEB"/>
<path d="M173.02 394.25H161.88V394.5H173.02V394.25Z" fill="#EBEBEB"/>
<path d="M152.97 394.25H114.58V394.5H152.97V394.25Z" fill="#EBEBEB"/>
<path d="M94.0096 390.03H66.3096V390.28H94.0096V390.03Z" fill="#EBEBEB"/>
<path d="M216.07 200.88L216.52 187.74L208.46 185.1C208.113 180.647 207.391 176.231 206.3 171.9L213.14 166.9L208.5 154.56L200.04 155.24C198.034 151.264 195.692 147.467 193.04 143.89L197.42 136.58L188.42 126.97L180.86 130.84C177.46 127.934 173.828 125.312 170 123L171.22 114.6L159.22 109.16L153.72 115.6C149.477 114.243 145.129 113.239 140.72 112.6L138.72 104.37L125.54 103.92L122.94 111.99C118.491 112.34 114.079 113.059 109.75 114.14L104.67 107.34L92.3298 111.95L93.0098 120.41C89.0361 122.446 85.2396 124.811 81.6598 127.48L74.2998 123L64.6498 132L68.5198 139.6C65.6132 142.982 63.0035 146.609 60.7198 150.44L52.3298 149.18L46.8498 161.18L53.3298 166.67C51.9629 170.91 50.9593 175.259 50.3298 179.67L41.9998 181.76L41.5498 194.9L49.6498 197.54C49.9849 201.99 50.7042 206.403 51.7998 210.73L44.9598 215.73L49.6098 228.08L58.0698 227.4C60.0705 231.379 62.4126 235.176 65.0698 238.75L60.6798 246.06L69.6798 255.67L77.2398 251.8C80.6304 254.705 84.2562 257.324 88.0798 259.63L86.8198 268.02L98.8198 273.47L104.35 267.03C108.593 268.399 112.941 269.42 117.35 270.08L119.35 278.31L132.53 278.76L135.13 270.69C139.581 270.336 143.996 269.617 148.33 268.54L153.33 275.34L165.67 270.73L165.03 262.27C168.996 260.221 172.792 257.856 176.38 255.2L183.65 259.58L193.3 250.58L189.43 242.98C192.337 239.598 194.947 235.971 197.23 232.14L205.62 233.4L211.1 221.4L204.62 215.9C206.01 211.663 207.03 207.313 207.67 202.9L216.07 200.88ZM127.28 243.45C116.968 243.102 106.991 239.703 98.6106 233.683C90.2305 227.664 83.824 219.294 80.2014 209.633C76.5788 199.972 75.9029 189.453 78.2592 179.408C80.6155 169.363 85.8981 160.242 93.4388 153.199C100.98 146.157 110.44 141.509 120.622 139.844C130.805 138.178 141.253 139.57 150.644 143.844C160.035 148.117 167.948 155.08 173.382 163.851C178.816 172.622 181.526 182.808 181.17 193.12C180.695 206.939 174.752 220.005 164.646 229.443C154.54 238.881 141.1 243.919 127.28 243.45Z" fill="#EBEBEB"/>
<path d="M441 157.42L444.31 154.33L443 151.72C443.999 150.55 444.899 149.299 445.69 147.98L448.59 148.41L450.46 144.27L448.24 142.38C448.718 140.916 449.069 139.414 449.29 137.89L452.14 137.18L452.28 132.64L449.5 131.74C449.378 130.202 449.13 128.677 448.76 127.18L451.11 125.43L449.51 121.18L446.6 121.41C445.898 120.039 445.085 118.728 444.17 117.49L445.68 114.99L442.57 111.67L439.97 113C438.799 112.003 437.548 111.103 436.23 110.31L436.65 107.41L432.52 105.52L430.62 107.75C429.153 107.293 427.652 106.959 426.13 106.75L425.42 103.91L420.88 103.74L419.97 106.54C418.438 106.657 416.919 106.905 415.43 107.28L413.69 104.93L409.43 106.52L409.67 109.44C408.295 110.135 406.984 110.948 405.75 111.87L403.23 110.36L399.91 113.45L401.2 116C400.193 117.166 399.29 118.417 398.5 119.74L395.61 119.31L393.73 123.45L395.96 125.35C395.498 126.812 395.163 128.311 394.96 129.83L392.1 130.54L391.96 135.08L394.75 135.98C394.864 137.518 395.108 139.043 395.48 140.54L393.12 142.28L394.72 146.53L397.64 146.31C398.342 147.681 399.154 148.992 400.07 150.23L398.56 152.73L401.67 156.05L404.27 154.72C405.439 155.72 406.69 156.62 408.01 157.41L407.58 160.3L411.72 162.19L413.62 159.97C415.088 160.422 416.589 160.756 418.11 160.97L418.82 163.81L423.36 163.98L424.27 161.18C425.802 161.064 427.321 160.816 428.81 160.44L430.55 162.79L434.81 161.2L434.58 158.28C435.951 157.584 437.259 156.771 438.49 155.85L441 157.42ZM417.38 138.29C416.507 137.354 415.931 136.181 415.725 134.917C415.518 133.654 415.692 132.358 416.222 131.193C416.753 130.029 417.617 129.047 418.705 128.374C419.794 127.7 421.057 127.365 422.337 127.41C423.616 127.454 424.853 127.878 425.891 128.626C426.93 129.374 427.723 130.413 428.171 131.612C428.619 132.811 428.701 134.116 428.407 135.361C428.113 136.607 427.457 137.738 426.52 138.61C425.898 139.196 425.167 139.653 424.367 139.954C423.568 140.256 422.717 140.396 421.863 140.366C421.009 140.336 420.17 140.137 419.394 139.781C418.617 139.425 417.919 138.918 417.34 138.29H417.38Z" fill="#EBEBEB"/>
<path d="M320 292.34L309.66 285.19C308.646 281.467 307.252 277.858 305.5 274.42L308.15 264.02L293.15 247.96L282.59 249.89C279.277 247.905 275.769 246.267 272.12 245L265.7 234.19L243.7 233.44L236.56 243.78C232.841 244.793 229.236 246.183 225.8 247.93L215.4 245.28L199.34 260.28L201.27 270.82C199.287 274.14 197.652 277.655 196.39 281.31L185.58 287.73L184.83 309.73L195.18 316.87C196.177 320.613 197.568 324.24 199.33 327.69L196.65 338L211.65 354.06L222.14 352.14C225.478 354.127 229.009 355.769 232.68 357.04L239.09 367.83L261.09 368.59L268.22 358.25C271.972 357.237 275.611 355.843 279.08 354.09L289.42 356.73L305.49 341.73L303.56 331.19C305.549 327.87 307.185 324.351 308.44 320.69L319.25 314.27L320 292.34ZM251.55 325.73C246.666 325.563 241.941 323.952 237.973 321.1C234.005 318.248 230.971 314.283 229.256 309.707C227.541 305.131 227.221 300.149 228.337 295.392C229.453 290.634 231.955 286.314 235.526 282.978C239.097 279.642 243.576 277.44 248.399 276.649C253.221 275.859 258.17 276.517 262.619 278.539C267.068 280.561 270.817 283.857 273.393 288.01C275.969 292.163 277.255 296.986 277.09 301.87C276.861 308.42 274.041 314.612 269.251 319.085C264.461 323.559 258.091 325.949 251.54 325.73H251.55Z" fill="#EBEBEB"/>
<path d="M343.55 230H343.48L326.16 229.41C325.81 229.404 325.466 229.309 325.162 229.134C324.858 228.959 324.602 228.71 324.42 228.41L319.75 220.56C317.233 219.639 314.798 218.509 312.47 217.18L305 218.47C304.652 218.534 304.294 218.508 303.958 218.397C303.623 218.285 303.321 218.09 303.08 217.83L291.25 205.17C291.002 204.908 290.826 204.586 290.738 204.236C290.65 203.885 290.655 203.518 290.75 203.17L292.64 195.76C291.469 193.359 290.512 190.859 289.78 188.29L282.25 183.09C281.958 182.889 281.722 182.618 281.563 182.302C281.404 181.985 281.327 181.634 281.34 181.28L281.93 163.96C281.942 163.61 282.039 163.269 282.214 162.965C282.388 162.662 282.634 162.406 282.93 162.22L290.8 157.55C291.708 155.039 292.836 152.613 294.17 150.3L292.79 142.77C292.726 142.42 292.751 142.06 292.863 141.723C292.974 141.385 293.17 141.082 293.43 140.84L306.09 129.02C306.352 128.771 306.674 128.593 307.024 128.504C307.374 128.414 307.741 128.417 308.09 128.51L315.53 130.41C317.925 129.238 320.418 128.278 322.98 127.54L328.18 120.01C328.374 119.711 328.643 119.469 328.962 119.309C329.28 119.149 329.635 119.077 329.99 119.1L347.3 119.7C347.652 119.707 347.997 119.803 348.302 119.977C348.608 120.152 348.865 120.401 349.05 120.7L353.72 128.56C356.22 129.477 358.635 130.608 360.94 131.94L368.5 130.55C368.848 130.485 369.207 130.51 369.543 130.622C369.879 130.734 370.181 130.929 370.42 131.19L382.25 143.85C382.497 144.113 382.672 144.435 382.76 144.785C382.847 145.135 382.844 145.502 382.75 145.85L380.85 153.28C382.022 155.676 382.985 158.169 383.73 160.73L391.25 165.93C391.542 166.13 391.779 166.402 391.938 166.718C392.097 167.034 392.174 167.386 392.16 167.74L391.57 185.05C391.559 185.401 391.461 185.744 391.287 186.049C391.113 186.354 390.867 186.612 390.57 186.8L382.7 191.47C381.787 193.975 380.659 196.398 379.33 198.71L380.71 206.25C380.775 206.598 380.75 206.957 380.638 207.293C380.526 207.628 380.331 207.93 380.07 208.17L367.33 220C367.068 220.248 366.746 220.425 366.396 220.512C366.046 220.6 365.679 220.596 365.33 220.5L357.93 218.61C355.519 219.776 353.013 220.736 350.44 221.48L345.29 229C345.105 229.297 344.849 229.543 344.546 229.718C344.242 229.892 343.9 229.989 343.55 230ZM327.46 225.23L342.46 225.74L347.46 218.55C347.737 218.13 348.162 217.83 348.65 217.71C351.464 216.94 354.195 215.892 356.8 214.58C357.255 214.361 357.771 214.308 358.26 214.43L365.26 216.22L376.26 205.97L375 198.74C374.903 198.235 374.996 197.711 375.26 197.27C376.746 194.794 377.969 192.17 378.91 189.44C379.069 188.945 379.404 188.525 379.85 188.26L387.38 183.8L387.89 168.8L380.69 163.8C380.311 163.541 380.027 163.165 379.88 162.73C379.88 162.68 379.88 162.62 379.88 162.56C379.11 159.796 378.065 157.116 376.76 154.56C376.529 154.102 376.472 153.576 376.6 153.08L378.4 146L368.15 135L360.96 136.32C360.458 136.411 359.94 136.319 359.5 136.06C357.019 134.572 354.392 133.342 351.66 132.39C351.504 132.34 351.353 132.273 351.21 132.19C350.922 132.01 350.682 131.763 350.51 131.47L346 123.92L331 123.4L326 130.61C325.702 131.033 325.262 131.334 324.76 131.46C321.975 132.221 319.275 133.263 316.7 134.57C316.246 134.802 315.723 134.858 315.23 134.73L308.15 132.93L297.15 143.18L298.47 150.35C298.549 150.802 298.482 151.268 298.28 151.68L298.18 151.85C296.693 154.336 295.47 156.97 294.53 159.71C294.365 160.18 294.039 160.576 293.61 160.83L286.08 165.3L285.57 180.3L292.78 185.3C293.191 185.581 293.489 185.999 293.62 186.48C294.37 189.288 295.412 192.01 296.73 194.6C296.802 194.747 296.859 194.902 296.9 195.06C296.976 195.389 296.976 195.731 296.9 196.06L295.1 203.06L305.35 214.06L312.49 212.75C312.989 212.659 313.504 212.751 313.94 213.01C316.44 214.495 319.084 215.725 321.83 216.68C322.326 216.827 322.745 217.16 323 217.61L327.46 225.23ZM336.73 206.26C336.36 206.26 335.99 206.26 335.62 206.26C327.307 206.114 319.389 202.69 313.588 196.734C307.787 190.778 304.573 182.771 304.647 174.457C304.72 166.143 308.074 158.195 313.979 152.342C319.883 146.489 327.861 143.205 336.175 143.205C344.49 143.205 352.467 146.489 358.372 152.342C364.277 158.195 367.631 166.143 367.704 174.457C367.777 182.771 364.564 190.778 358.763 196.734C352.962 202.69 345.043 206.114 336.73 206.26ZM336.73 147.17C329.466 147.295 322.545 150.285 317.474 155.489C312.404 160.692 309.594 167.688 309.656 174.953C309.719 182.219 312.649 189.165 317.809 194.28C322.968 199.396 329.94 202.266 337.205 202.266C344.471 202.266 351.442 199.396 356.602 194.28C361.762 189.165 364.692 182.219 364.754 174.953C364.817 167.688 362.007 160.692 356.936 155.489C351.866 150.285 344.945 147.295 337.68 147.17H336.73Z" fill="#EBEBEB"/>
<path d="M383.44 105.32L376.26 103.4L374.34 96.2199L377.15 93.4199L380.11 99.5499L386.25 102.52L383.44 105.32Z" fill="#E0E0E0"/>
<path d="M383.88 100.52C384.191 100.209 384.437 99.8406 384.605 99.4349C384.773 99.0291 384.86 98.5942 384.86 98.1549C384.86 97.7157 384.773 97.2808 384.605 96.875C384.437 96.4692 384.191 96.1005 383.88 95.7899C383.57 95.4794 383.201 95.233 382.795 95.0649C382.39 94.8968 381.955 94.8103 381.515 94.8103C381.076 94.8103 380.641 94.8968 380.235 95.0649C379.83 95.233 379.461 95.4794 379.15 95.7899L382.72 90.4299L387.5 92.8499L388.55 97.8499L383.88 100.52Z" fill="#E0E0E0"/>
<path d="M376.58 94L381.84 88.74L389 90.65L390.93 97.82L385.67 103.08L378.5 101.15L376.58 94ZM386.13 98.3C386.598 97.8314 386.917 97.2344 387.046 96.5847C387.175 95.9349 387.108 95.2615 386.855 94.6496C386.601 94.0377 386.172 93.5147 385.621 93.1467C385.07 92.7788 384.423 92.5824 383.76 92.5824C383.098 92.5824 382.45 92.7788 381.899 93.1467C381.348 93.5147 380.919 94.0377 380.665 94.6496C380.412 95.2615 380.345 95.9349 380.474 96.5847C380.603 97.2344 380.922 97.8314 381.39 98.3C382.024 98.9215 382.877 99.2679 383.764 99.2642C384.652 99.2604 385.502 98.9068 386.13 98.28V98.3Z" fill="#F0F0F0"/>
<path d="M90.22 296.71L94.07 295.67L95.1 291.82L93.6 290.32L92.01 293.61L88.71 295.2L90.22 296.71Z" fill="#E0E0E0"/>
<path d="M90.0004 294.13C89.6995 293.786 89.5406 293.341 89.5557 292.885C89.5708 292.428 89.7589 291.994 90.0819 291.671C90.4049 291.348 90.8386 291.16 91.2951 291.145C91.7516 291.13 92.1968 291.289 92.5404 291.59L90.6304 288.72L88.0004 290L87.4404 292.7L90.0004 294.13Z" fill="#E0E0E0"/>
<path d="M93.9005 290.62L91.0805 287.8L87.2305 288.8L86.2305 292.65L89.0005 295.5L92.8505 294.5L93.9005 290.62ZM88.7805 292.93C88.5951 292.768 88.445 292.569 88.3395 292.346C88.234 292.124 88.1754 291.882 88.1672 291.635C88.159 291.389 88.2015 291.144 88.292 290.915C88.3826 290.685 88.5192 290.477 88.6934 290.303C88.8677 290.129 89.0758 289.992 89.305 289.902C89.5342 289.811 89.7795 289.769 90.0258 289.777C90.2721 289.785 90.5141 289.844 90.7368 289.949C90.9595 290.055 91.1581 290.205 91.3205 290.39C91.6214 290.734 91.7803 291.179 91.7652 291.635C91.7501 292.092 91.562 292.526 91.239 292.849C90.916 293.172 90.4823 293.36 90.0258 293.375C89.5693 293.39 89.1241 293.231 88.7805 292.93Z" fill="#F0F0F0"/>
<path d="M103.73 93.1126L106.93 96.3126C107.33 96.706 107.869 96.9263 108.43 96.9263C108.991 96.9263 109.53 96.706 109.93 96.3126C110.321 95.9112 110.54 95.373 110.54 94.8126C110.54 94.2523 110.321 93.7141 109.93 93.3126L106.74 90.1226C106.338 89.7317 105.8 89.5129 105.24 89.5129C104.679 89.5129 104.141 89.7317 103.74 90.1226C103.348 90.5211 103.128 91.0569 103.126 91.6156C103.124 92.1743 103.341 92.7116 103.73 93.1126Z" fill="#F0F0F0"/>
<path d="M101.48 85.1627C102.315 84.9305 103.2 84.9472 104.026 85.2107C104.851 85.4743 105.582 85.9732 106.128 86.6462C106.674 87.3193 107.012 88.1371 107.1 88.9994C107.187 89.8616 107.021 90.7307 106.622 91.5C106.223 92.2693 105.608 92.9052 104.852 93.3297C104.096 93.7542 103.233 93.9488 102.369 93.8896C101.504 93.8304 100.675 93.52 99.9846 92.9965C99.2939 92.473 98.771 91.7592 98.4803 90.9427C98.2958 90.3662 98.227 89.759 98.2781 89.1559C98.3291 88.5528 98.4989 87.9657 98.7778 87.4285C99.0566 86.8913 99.4389 86.4145 99.9028 86.0257C100.367 85.6368 100.903 85.3435 101.48 85.1627Z" fill="#E0E0E0"/>
<path d="M97.9997 90.4072L98.4629 91.6965L107.968 88.2819L107.505 86.9926L97.9997 90.4072Z" fill="#F0F0F0"/>
<path d="M250 427.56C357.083 427.56 443.89 422.492 443.89 416.24C443.89 409.988 357.083 404.92 250 404.92C142.918 404.92 56.1104 409.988 56.1104 416.24C56.1104 422.492 142.918 427.56 250 427.56Z" fill="#F5F5F5"/>
<path d="M127.869 79.8596C127.007 75.4207 127.562 71.7361 129.554 68.7766C131.547 65.8172 134.707 63.9345 139.146 63.072C143.585 62.2096 147.381 62.7278 150.302 64.6796C153.223 66.6313 155.144 69.8326 156.01 74.1616C156.633 76.8362 156.605 79.6214 155.927 82.2829C155.277 84.4905 153.987 86.4558 152.22 87.9304C150.124 89.5863 147.637 90.6736 144.998 91.0875C142.406 91.6902 139.71 91.6987 137.114 91.1124C134.86 90.49 132.845 89.2078 131.326 87.4307C129.512 85.2647 128.318 82.6487 127.869 79.8596ZM136.263 78.2597C136.798 80.9977 137.69 82.8663 138.94 83.8657C139.587 84.3266 140.32 84.6519 141.096 84.8221C141.871 84.9924 142.673 85.004 143.454 84.8563C144.234 84.7086 144.976 84.4047 145.636 83.9627C146.296 83.5207 146.86 82.9499 147.293 82.2845C148.056 80.9176 148.135 78.709 147.549 75.6793C147.048 73.1225 146.166 71.3542 144.902 70.3745C144.266 69.8871 143.528 69.5486 142.744 69.384C141.96 69.2193 141.148 69.2327 140.37 69.4231C139.593 69.5438 138.853 69.8391 138.206 70.2869C137.56 70.7347 137.024 71.3233 136.637 72.0084C135.852 73.4546 135.72 75.4515 136.263 78.2597Z" fill="#EBEBEB"/>
<path d="M159.855 80.6056C159.542 79.2325 159.523 77.8087 159.799 76.4277C160.074 75.0466 160.639 73.7394 161.455 72.5915C162.367 71.3734 163.511 70.3476 164.821 69.5728C166.131 68.798 167.582 68.2896 169.089 68.0766C173.028 67.312 176.225 67.875 178.681 69.7656C180.744 71.4702 182.108 73.8743 182.513 76.5197C182.918 79.1652 182.335 81.8671 180.876 84.1107C179.243 86.4411 176.655 87.948 173.112 88.6316C170.378 89.3051 167.493 88.9812 164.976 87.7183C163.631 87.0085 162.469 85.9969 161.581 84.763C160.692 83.529 160.102 82.1061 159.855 80.6056ZM167.415 79.1099C167.574 80.5129 168.216 81.8169 169.231 82.7981C169.636 83.1245 170.106 83.3589 170.61 83.485C171.114 83.6112 171.64 83.6261 172.15 83.5287C172.661 83.4312 173.144 83.2239 173.566 82.9209C173.989 82.618 174.34 82.2267 174.596 81.7744C175.161 80.4481 175.256 78.9687 174.866 77.5808C174.698 76.2103 174.063 74.9396 173.067 73.9831C172.679 73.6484 172.22 73.4076 171.724 73.2794C171.228 73.1512 170.71 73.1391 170.209 73.2439C169.687 73.3353 169.192 73.5443 168.763 73.8551C168.334 74.1659 167.981 74.5704 167.732 75.0378C167.153 76.3164 167.041 77.7573 167.415 79.1099Z" fill="#EBEBEB"/>
<path d="M189.426 95.3497L184.138 68.1722L191.185 66.7905L191.754 69.6997C192.284 68.563 193.033 67.5424 193.959 66.6967C194.971 65.8904 196.167 65.3467 197.44 65.1141C198.618 64.8326 199.848 64.8526 201.017 65.1722C202.186 65.4919 203.255 66.1008 204.126 66.9429C206.044 68.851 207.309 71.3174 207.739 73.9886C208.377 77.26 208.075 79.9119 206.85 81.9648C206.268 82.9465 205.479 83.7896 204.538 84.4359C203.597 85.0821 202.527 85.5159 201.401 85.7072C200.316 85.9292 199.198 85.9386 198.109 85.7349C197.065 85.5184 196.077 85.0892 195.207 84.4741L197.036 93.8655L189.426 95.3497ZM193.62 76.611C193.765 77.865 194.354 79.026 195.28 79.8841C195.652 80.1882 196.089 80.4041 196.556 80.5157C197.024 80.6272 197.511 80.6316 197.981 80.5284C198.416 80.4551 198.829 80.2805 199.184 80.0188C199.54 79.757 199.829 79.4154 200.029 79.0213C200.493 77.7836 200.535 76.4274 200.149 75.1632C200.005 73.9029 199.438 72.7285 198.541 71.8316C198.208 71.5363 197.81 71.3216 197.38 71.2042C196.95 71.0867 196.499 71.0696 196.061 71.1542C195.599 71.2391 195.162 71.4273 194.782 71.7048C194.403 71.9823 194.091 72.342 193.87 72.7569C193.343 73.9738 193.254 75.3362 193.62 76.611Z" fill="#EBEBEB"/>
<path d="M211.62 80.3872L218.97 78.2246C219.335 78.9401 219.921 79.5195 220.64 79.8773C221.418 80.1291 222.248 80.1731 223.048 80.0049C223.849 79.8368 224.591 79.4623 225.202 78.9187C225.373 78.7475 225.5 78.5371 225.572 78.3057C225.644 78.0743 225.658 77.8289 225.613 77.5908C225.562 77.3184 225.43 77.0676 225.234 76.8707C225.039 76.6739 224.789 76.54 224.517 76.4862C223.392 76.3271 222.252 76.2917 221.119 76.3805C219.218 76.4828 217.312 76.4235 215.421 76.2034C214.317 76.0078 213.291 75.5003 212.466 74.7408C211.585 73.9292 210.992 72.8529 210.778 71.6746C210.564 70.4964 210.739 69.2803 211.278 68.2107C211.897 67.0674 212.833 66.1273 213.973 65.5032C215.596 64.647 217.348 64.0627 219.16 63.7735C220.893 63.3604 222.678 63.2002 224.457 63.298C225.573 63.4048 226.646 63.7815 227.584 64.3957C228.582 65.1147 229.419 66.0334 230.042 67.0934L222.973 69.1847C222.728 68.6558 222.306 68.2288 221.78 67.977C221.059 67.6935 220.27 67.6341 219.514 67.8065C218.85 67.8782 218.226 68.1644 217.738 68.6217C217.583 68.7779 217.468 68.9698 217.404 69.1806C217.34 69.3914 217.329 69.6146 217.371 69.8309C217.417 70.0689 217.535 70.2871 217.708 70.4568C217.882 70.6266 218.102 70.7397 218.341 70.7815C219.455 70.9459 220.585 70.9575 221.702 70.816C223.638 70.5966 225.594 70.6305 227.522 70.9169C228.733 71.1266 229.857 71.6868 230.753 72.5281C231.563 73.3099 232.112 74.3228 232.324 75.4284C232.543 76.6136 232.411 77.8371 231.944 78.9483C231.374 80.2633 230.419 81.3743 229.204 82.1346C227.415 83.2262 225.427 83.95 223.355 84.2638C219.765 84.9659 217.097 84.953 215.352 84.2251C213.653 83.4845 212.313 82.1063 211.62 80.3872Z" fill="#EBEBEB"/>
<path d="M237.074 58.4265L245.28 58.6817L245.084 64.9787L243.181 77.5956L238.104 77.4377L236.878 64.7435L237.074 58.4265ZM236.825 79.3089L244.481 79.547L244.271 86.3237L236.614 86.0856L236.825 79.3089Z" fill="#EBEBEB"/>
<path d="M128.68 171.58H128.5C124 169.83 121.31 168.13 119.91 166.08C118.814 166.288 117.681 166.133 116.68 165.64C115.508 165.066 114.536 164.153 113.89 163.02C113.551 163.28 113.151 163.451 112.728 163.516C112.305 163.58 111.872 163.537 111.47 163.39C110.238 162.929 109.186 162.084 108.47 160.98C108.022 161.313 107.466 161.467 106.91 161.41C103.91 161.17 99.9102 155.25 99.6202 148.95C99.6173 148.817 99.6654 148.688 99.7547 148.589C99.844 148.491 99.9676 148.43 100.1 148.42C100.166 148.417 100.231 148.428 100.293 148.45C100.355 148.473 100.411 148.507 100.46 148.552C100.508 148.597 100.547 148.65 100.575 148.71C100.602 148.77 100.618 148.834 100.62 148.9C100.9 154.9 104.73 160.23 107 160.41C107.165 160.428 107.333 160.414 107.492 160.368C107.652 160.321 107.801 160.244 107.93 160.14C107.148 158.714 106.657 157.147 106.485 155.53C106.314 153.913 106.465 152.278 106.93 150.72C107.79 147.72 108.55 146.54 109.47 146.72C111.19 147.15 110.96 153.72 110.05 158.01C109.912 158.784 109.627 159.524 109.21 160.19C109.8 161.178 110.69 161.953 111.75 162.4C112.033 162.508 112.341 162.532 112.637 162.47C112.933 162.408 113.205 162.262 113.42 162.05C112.64 160.12 112.42 157.48 113.54 154.12C114.94 149.69 115.54 149.57 115.85 149.49C115.967 149.465 116.088 149.473 116.201 149.512C116.313 149.55 116.413 149.619 116.49 149.71C117.42 150.76 116.31 157.64 115.15 161.04C115.014 161.449 114.826 161.839 114.59 162.2C115.127 163.281 116.001 164.159 117.08 164.7C117.788 165.044 118.575 165.193 119.36 165.13C119.27 164.94 119.19 164.75 119.11 164.55C118.32 162.4 118.71 159.93 120.3 156.97C121.35 155.02 122.21 154.1 123.01 154.1C123.223 154.103 123.43 154.166 123.607 154.283C123.784 154.4 123.924 154.566 124.01 154.76C124.88 156.37 124.25 161.68 122.53 164.32C122.127 164.925 121.567 165.409 120.91 165.72C122.25 167.48 124.8 169.03 128.91 170.61C128.972 170.632 129.028 170.666 129.077 170.711C129.125 170.755 129.163 170.809 129.19 170.869C129.217 170.928 129.232 170.993 129.234 171.058C129.236 171.124 129.224 171.189 129.2 171.25C129.161 171.354 129.09 171.443 128.996 171.502C128.902 171.562 128.791 171.589 128.68 171.58ZM123 155.11C123 155.11 122.43 155.11 121.17 157.46C119.72 160.14 119.35 162.35 120.04 164.21C120.124 164.44 120.224 164.664 120.34 164.88C120.882 164.656 121.342 164.272 121.66 163.78C123.06 161.64 123.73 157.24 123.21 155.52C123.14 155.17 123 155.11 123 155.11ZM115.82 150.9C115.279 152.038 114.831 153.219 114.48 154.43C113.713 156.529 113.581 158.807 114.1 160.98L114.19 160.72C115.24 157.55 115.8 154.239 115.85 150.9H115.82ZM109.24 147.75C109.07 147.9 108.58 148.53 107.89 150.97C107.074 153.708 107.332 156.655 108.61 159.21C108.815 158.763 108.966 158.293 109.06 157.81C110.13 152.9 109.83 148.46 109.27 147.75H109.24Z" fill="#263238"/>
<path d="M166.701 224C165.102 224.015 163.528 223.605 162.141 222.81C162.026 222.741 161.944 222.631 161.91 222.502C161.876 222.373 161.895 222.236 161.961 222.12C161.994 222.064 162.038 222.014 162.09 221.975C162.142 221.936 162.202 221.908 162.265 221.892C162.328 221.876 162.394 221.873 162.459 221.883C162.523 221.893 162.585 221.916 162.641 221.95C166.211 224.04 170.821 222.58 171.771 221.05C171.839 220.954 171.888 220.845 171.914 220.73C171.94 220.615 171.942 220.496 171.921 220.38C170.095 220.485 168.288 219.97 166.791 218.92C164.241 217.33 164.041 216.85 164.061 216.47C164.066 216.361 164.1 216.255 164.16 216.164C164.219 216.072 164.303 215.998 164.401 215.95C165.401 215.45 169.911 217.52 171.791 218.76C172.016 218.91 172.224 219.084 172.411 219.28C173.149 219.113 173.815 218.713 174.311 218.14C174.59 217.812 174.791 217.426 174.901 217.01H174.701C173.101 217.17 171.501 216.48 169.791 214.9C168.611 213.82 168.161 213.07 168.311 212.48C168.356 212.314 168.448 212.165 168.576 212.05C168.703 211.935 168.861 211.858 169.031 211.83C170.411 211.48 173.831 212.94 175.221 214.47C175.531 214.803 175.751 215.209 175.861 215.65C177.171 215.04 178.551 213.65 180.181 211.38C180.219 211.326 180.267 211.28 180.323 211.245C180.378 211.209 180.441 211.185 180.506 211.174C180.571 211.163 180.637 211.165 180.702 211.18C180.766 211.194 180.827 211.222 180.881 211.26C180.988 211.338 181.06 211.455 181.083 211.586C181.105 211.716 181.076 211.851 181.001 211.96C179.111 214.6 177.531 216.1 175.951 216.71C175.869 217.449 175.566 218.146 175.081 218.71C174.505 219.38 173.748 219.869 172.901 220.12C172.948 220.359 172.948 220.605 172.9 220.843C172.852 221.082 172.757 221.308 172.621 221.51C171.781 222.94 169.361 224 166.701 224ZM165.811 217.06C166.151 217.31 166.631 217.64 167.321 218.06C168.396 218.785 169.631 219.238 170.921 219.38C169.311 218.415 167.597 217.637 165.811 217.06ZM169.301 212.81C169.588 213.351 169.987 213.825 170.471 214.2C171.951 215.57 173.301 216.2 174.601 216.04H174.921C174.85 215.729 174.698 215.443 174.481 215.21C173.081 213.63 170.001 212.65 169.301 212.81Z" fill="#263238"/>
<path d="M179.94 222.63L164.36 225.46L150.21 148.24L120.15 153.7L71.1504 240.7L76.4104 269.41L139.26 258L143.56 281.48L173.62 276L169.32 252.52L184.9 249.69L179.94 222.63ZM101.09 237L127.09 191.43L134.34 230.97L101.09 237Z" fill="#407BFF"/>
<path d="M305.43 143C304.957 138.146 303.882 133.369 302.23 128.78C300.531 124.384 298.17 120.273 295.23 116.59C291.75 112.305 287.427 108.779 282.53 106.23C277.197 103.303 270.123 101.267 261.31 100.12C243.01 97.7333 228.75 100.98 218.53 109.86C208.31 118.74 201.577 135.74 198.33 160.86C197.034 170.248 196.699 179.744 197.33 189.2C197.997 197.867 199.59 204.843 202.11 210.13C205.317 217.259 210.376 223.399 216.76 227.91C223.073 232.343 231.74 235.273 242.76 236.7C262.347 239.253 276.87 235.49 286.33 225.41C295.79 215.33 302.057 198.297 305.13 174.31C306.496 163.924 306.597 153.41 305.43 143Z" fill="#407BFF"/>
<path d="M251.77 226.43C249.36 226.35 246.77 226.13 244.16 225.79C235 224.6 227.92 222.28 223.1 218.9C218.293 215.506 214.493 210.876 212.1 205.5L212.05 205.39C210.13 201.39 208.87 195.64 208.32 188.39C207.737 179.681 208.046 170.936 209.24 162.29C212.81 134.57 220.18 123 225.73 118.18C232.21 112.56 240.96 110.02 252.46 110.42C254.82 110.5 257.32 110.71 259.89 111.04C267.27 112.04 273.12 113.64 277.26 115.9C280.837 117.742 284.004 120.29 286.57 123.39C288.815 126.19 290.619 129.316 291.92 132.66C293.249 136.389 294.109 140.269 294.48 144.21C295.547 153.76 295.449 163.404 294.19 172.93C291.42 194.47 286.06 209.61 278.27 217.93C272.49 224.09 263.82 226.93 251.76 226.47L251.77 226.43Z" fill="#263238"/>
<path d="M271.341 143.29L271.471 139.5L269.141 138.74C269.042 137.458 268.834 136.187 268.521 134.94L270.521 133.48L269.181 129.92L266.741 130.12C266.167 128.976 265.498 127.882 264.741 126.85L266.001 124.74L263.401 121.97L261.221 123.09C260.245 122.251 259.202 121.495 258.101 120.83L258.451 118.41L254.991 116.84L253.411 118.7C252.187 118.303 250.933 118.009 249.661 117.82L249.071 115.45L245.271 115.32L244.521 117.64C243.239 117.742 241.968 117.95 240.721 118.26L239.251 116.26L235.691 117.59L235.891 120.03C234.747 120.604 233.653 121.273 232.621 122.03L230.521 120.76L227.741 123.35L228.861 125.54C228.02 126.515 227.267 127.562 226.611 128.67L224.191 128.3L222.611 131.76L224.481 133.34C224.075 134.564 223.78 135.823 223.601 137.1L221.221 137.7L221.091 141.48L223.421 142.24C223.518 143.525 223.726 144.8 224.041 146.05L222.041 147.5L223.381 151.06L225.821 150.86C226.389 152.007 227.058 153.102 227.821 154.13L226.551 156.24L229.151 159.01L231.331 157.9C232.306 158.735 233.35 159.488 234.451 160.15L234.091 162.57L237.551 164.14L239.141 162.29C240.368 162.684 241.625 162.975 242.901 163.16L243.491 165.54L247.281 165.67L248.031 163.34C249.316 163.242 250.591 163.035 251.841 162.72L253.291 164.72L256.851 163.39L256.661 160.96C257.801 160.378 258.894 159.71 259.931 158.96L262.031 160.22L264.811 157.63L263.701 155.44C264.539 154.468 265.288 153.424 265.941 152.32L268.361 152.68L269.941 149.22L268.081 147.64C268.479 146.417 268.77 145.163 268.951 143.89L271.341 143.29ZM245.741 155.56C242.779 155.452 239.916 154.468 237.512 152.734C235.108 151 233.272 148.593 232.236 145.816C231.199 143.039 231.008 140.018 231.688 137.133C232.367 134.248 233.885 131.629 236.051 129.606C238.218 127.583 240.935 126.248 243.859 125.768C246.784 125.288 249.786 125.685 252.485 126.909C255.184 128.134 257.46 130.13 259.025 132.647C260.591 135.163 261.376 138.088 261.281 141.05C261.218 143.024 260.765 144.967 259.949 146.766C259.133 148.565 257.969 150.185 256.526 151.534C255.082 152.882 253.386 153.932 251.535 154.622C249.684 155.313 247.715 155.632 245.741 155.56Z" fill="#407BFF"/>
<path opacity="0.3" d="M287.121 212.87L287.401 210.31L285.861 209.69C285.858 208.819 285.785 207.949 285.641 207.09L287.031 206.2L286.321 203.73H284.661C284.332 202.927 283.934 202.154 283.471 201.42L284.411 200.06L282.811 198.06L281.281 198.7C280.661 198.087 279.992 197.525 279.281 197.02L279.651 195.4L277.401 194.16L276.221 195.35C275.417 195.019 274.588 194.755 273.741 194.56L273.461 192.93L270.911 192.64L270.281 194.18C269.412 194.184 268.545 194.264 267.691 194.42L266.801 193L264.331 193.73V195.39C263.527 195.722 262.754 196.123 262.021 196.59L260.661 195.59L258.661 197.19L259.301 198.72C258.691 199.34 258.133 200.009 257.631 200.72L256.011 200.36L254.781 202.61L255.961 203.78C255.626 204.585 255.361 205.419 255.171 206.27L253.531 206.54L253.261 209.09L254.791 209.73C254.791 210.595 254.868 211.458 255.021 212.31L253.611 213.2L254.331 215.67H256.001C256.335 216.469 256.736 217.239 257.201 217.97L256.201 219.33L257.801 221.33L259.351 220.68C259.966 221.295 260.635 221.854 261.351 222.35L261.001 224L263.251 225.23L264.421 224.06C265.225 224.383 266.055 224.64 266.901 224.83L267.191 226.47L269.741 226.75L270.361 225.22C271.245 225.219 272.128 225.145 273.001 225L273.891 226.41L276.351 225.69V224.03C277.155 223.692 277.93 223.291 278.671 222.83L280.011 223.83L282.011 222.22L281.361 220.69C281.977 220.07 282.542 219.401 283.051 218.69L284.661 219.05L285.901 216.8L284.721 215.64C285.042 214.835 285.3 214.006 285.491 213.16L287.121 212.87ZM274.251 211.87C273.828 212.644 273.184 213.275 272.402 213.684C271.62 214.093 270.735 214.26 269.857 214.165C268.98 214.07 268.151 213.717 267.474 213.151C266.798 212.584 266.304 211.83 266.057 210.983C265.809 210.136 265.818 209.235 266.082 208.393C266.347 207.552 266.855 206.807 267.543 206.255C268.231 205.702 269.067 205.366 269.946 205.288C270.825 205.211 271.707 205.396 272.481 205.82C273.515 206.39 274.282 207.346 274.614 208.48C274.945 209.613 274.815 210.832 274.251 211.87Z" fill="#407BFF"/>
<path d="M301.291 169.65L298.291 167.59C297.996 166.519 297.594 165.48 297.091 164.49L297.851 161.49L293.531 156.86L290.531 157.42C289.579 156.853 288.574 156.381 287.531 156.01L285.681 152.89L279.351 152.68L277.291 155.68C276.218 155.971 275.179 156.373 274.191 156.88L271.191 156.11L266.561 160.44L267.121 163.44C266.546 164.387 266.074 165.393 265.711 166.44L262.601 168.29L262.381 174.62L265.381 176.68C265.672 177.759 266.074 178.804 266.581 179.8L265.821 182.8L270.141 187.43L273.141 186.88C274.093 187.446 275.098 187.918 276.141 188.29L277.981 191.4L284.321 191.62L286.371 188.62C287.452 188.327 288.501 187.924 289.501 187.42L292.501 188.18L297.131 183.86L296.581 180.86C297.149 179.909 297.621 178.904 297.991 177.86L301.101 176.01L301.291 169.65ZM281.561 179.27C280.153 179.222 278.792 178.757 277.649 177.935C276.505 177.113 275.631 175.97 275.137 174.651C274.643 173.332 274.552 171.897 274.874 170.526C275.196 169.155 275.917 167.91 276.947 166.949C277.976 165.988 279.268 165.354 280.657 165.127C282.047 164.9 283.473 165.09 284.755 165.674C286.037 166.257 287.117 167.208 287.858 168.405C288.6 169.602 288.969 170.993 288.921 172.4C288.853 174.286 288.04 176.068 286.661 177.356C285.281 178.644 283.447 179.332 281.561 179.27Z" fill="white"/>
<path d="M323 119.12L323.52 117.87C323.874 117.671 324.209 117.44 324.52 117.18H325.68L327.04 115.18L326.6 114.11C326.769 113.753 326.903 113.382 327 113L328 112.08L327.58 109.73L326.32 109.21C326.123 108.855 325.892 108.52 325.63 108.21V107.05L323.68 105.69L322.6 106.14C322.206 106.001 321.796 105.907 321.38 105.86L320.46 104.86L318.12 105.28L317.59 106.54C317.219 106.732 316.868 106.96 316.54 107.22H315.39L314.03 109.22L314.47 110.29C314.336 110.686 314.242 111.095 314.19 111.51L313.19 112.44L313.61 114.78L314.87 115.3C315.061 115.656 315.289 115.991 315.55 116.3V117.45L317.55 118.81L318.62 118.37C319.021 118.5 319.433 118.59 319.85 118.64L320.77 119.64L323 119.12ZM318 112.64C317.906 112.118 317.968 111.58 318.18 111.094C318.391 110.607 318.742 110.195 319.188 109.908C319.634 109.621 320.155 109.473 320.685 109.482C321.215 109.492 321.731 109.658 322.166 109.961C322.602 110.263 322.938 110.688 323.132 111.182C323.326 111.675 323.369 112.215 323.256 112.733C323.143 113.251 322.879 113.724 322.497 114.092C322.115 114.46 321.632 114.706 321.11 114.8C320.412 114.922 319.693 114.764 319.111 114.36C318.529 113.955 318.129 113.337 318 112.64Z" fill="#407BFF"/>
<path d="M295.611 112.49L294.841 111.84C296.491 109.793 298.53 108.094 300.841 106.84L301.311 107.72C299.113 108.916 297.176 110.538 295.611 112.49Z" fill="#407BFF"/>
<path d="M303.59 106.8L303.2 105.88C306.893 104.275 310.931 103.629 314.94 104L314.84 105C310.998 104.638 307.127 105.257 303.59 106.8Z" fill="#407BFF"/>
<path d="M301.701 113.72L300.881 113.16C303.29 109.907 306.796 107.637 310.751 106.77L310.941 107.77C307.245 108.577 303.965 110.69 301.701 113.72Z" fill="#407BFF"/>
<path d="M235.34 210C235.204 209.996 235.074 209.938 234.98 209.84L232.89 207.68C231.824 207.583 230.77 207.389 229.74 207.1L226.47 208.54C226.398 208.579 226.317 208.6 226.235 208.6C226.153 208.6 226.072 208.579 226 208.54L220.52 204.91C220.449 204.863 220.392 204.799 220.353 204.724C220.315 204.649 220.296 204.564 220.3 204.48V200.92C219.631 200.083 219.042 199.186 218.54 198.24L215.73 197.16C215.651 197.129 215.582 197.079 215.527 197.015C215.473 196.95 215.436 196.873 215.42 196.79L214.12 190.35C214.103 190.268 214.107 190.182 214.131 190.102C214.156 190.022 214.2 189.949 214.26 189.89L216.42 187.8C216.523 186.735 216.717 185.681 217 184.65L215.56 181.38C215.521 181.308 215.5 181.227 215.5 181.145C215.5 181.063 215.521 180.982 215.56 180.91L219.19 175.43C219.235 175.358 219.299 175.299 219.375 175.26C219.45 175.222 219.535 175.204 219.62 175.21L223.18 175.26C224.014 174.588 224.912 173.998 225.86 173.5L226.95 170.69C226.979 170.612 227.027 170.543 227.09 170.488C227.153 170.434 227.229 170.397 227.31 170.38L233.75 169.08C233.832 169.062 233.918 169.065 233.998 169.09C234.079 169.114 234.152 169.159 234.21 169.22L236.3 171.38C237.369 171.477 238.426 171.671 239.46 171.96L242.72 170.52C242.794 170.481 242.876 170.46 242.96 170.46C243.044 170.46 243.126 170.481 243.2 170.52L248.67 174.15C248.739 174.198 248.796 174.263 248.836 174.337C248.876 174.412 248.898 174.495 248.9 174.58L248.84 178.14C249.512 178.976 250.105 179.873 250.61 180.82L253.41 181.91C253.488 181.939 253.557 181.987 253.612 182.05C253.666 182.113 253.703 182.189 253.72 182.27L255.03 188.71C255.045 188.792 255.041 188.877 255.016 188.957C254.992 189.037 254.949 189.11 254.89 189.17L252.72 191.27C252.62 192.332 252.426 193.382 252.14 194.41L253.58 197.68C253.619 197.754 253.64 197.836 253.64 197.92C253.64 198.004 253.619 198.086 253.58 198.16L250 203.59C249.953 203.658 249.89 203.713 249.817 203.752C249.744 203.79 249.663 203.81 249.58 203.81L246.01 203.76C245.173 204.423 244.279 205.012 243.34 205.52L242.25 208.33C242.22 208.409 242.171 208.479 242.106 208.534C242.041 208.588 241.963 208.625 241.88 208.64L235.44 210H235.34ZM229.71 206C229.756 205.991 229.804 205.991 229.85 206C230.93 206.314 232.039 206.519 233.16 206.61C233.28 206.624 233.392 206.677 233.48 206.76L235.48 208.86L241.38 207.67L242.44 204.93C242.489 204.819 242.574 204.728 242.68 204.67C243.679 204.153 244.621 203.533 245.49 202.82C245.582 202.742 245.7 202.703 245.82 202.71L249.29 202.76L252.61 197.76L251.21 194.58C251.17 194.47 251.17 194.35 251.21 194.24C251.519 193.159 251.724 192.05 251.82 190.93C251.83 190.809 251.883 190.695 251.97 190.61L254.07 188.61L252.88 182.71L250.15 181.65C250.033 181.607 249.936 181.521 249.88 181.41C249.361 180.412 248.741 179.471 248.03 178.6C247.959 178.508 247.92 178.396 247.92 178.28V174.8L242.92 171.48L239.75 172.88C239.637 172.92 239.513 172.92 239.4 172.88C238.316 172.567 237.204 172.363 236.08 172.27C235.96 172.256 235.848 172.203 235.76 172.12L233.76 170.02L227.86 171.22L226.81 174C226.768 174.115 226.686 174.21 226.58 174.27C225.577 174.785 224.632 175.405 223.76 176.12C223.717 176.159 223.666 176.189 223.611 176.208C223.556 176.227 223.498 176.234 223.44 176.23L219.97 176.18L216.64 181.18L218.04 184.36C218.072 184.427 218.089 184.501 218.089 184.575C218.089 184.649 218.072 184.723 218.04 184.79C217.744 185.846 217.549 186.927 217.46 188.02C217.451 188.141 217.397 188.255 217.31 188.34L215.21 190.34L216.41 196.24L219.13 197.3C219.251 197.35 219.351 197.443 219.41 197.56C219.926 198.551 220.542 199.486 221.25 200.35C221.324 200.44 221.363 200.553 221.36 200.67V204.15L226.36 207.47L229.54 206.07C229.592 206.037 229.65 206.013 229.71 206ZM234.62 202.76C232.213 202.758 229.852 202.103 227.787 200.866C225.722 199.63 224.031 197.856 222.893 195.735C221.756 193.614 221.214 191.224 221.326 188.82C221.438 186.415 222.2 184.086 223.53 182.08C224.802 180.155 226.552 178.594 228.608 177.548C230.665 176.502 232.957 176.008 235.262 176.114C237.567 176.22 239.804 176.922 241.756 178.152C243.708 179.382 245.308 181.097 246.398 183.13C247.488 185.163 248.032 187.445 247.977 189.751C247.921 192.057 247.268 194.31 246.081 196.288C244.894 198.266 243.214 199.903 241.205 201.037C239.196 202.172 236.927 202.765 234.62 202.76ZM224.37 182.63C223.024 184.661 222.31 187.045 222.319 189.482C222.328 191.918 223.059 194.297 224.42 196.318C225.781 198.339 227.711 199.911 229.965 200.835C232.22 201.759 234.697 201.995 237.085 201.511C239.473 201.027 241.664 199.846 243.381 198.117C245.098 196.389 246.263 194.19 246.731 191.798C247.198 189.407 246.945 186.931 246.006 184.683C245.066 182.435 243.48 180.517 241.45 179.17C240.104 178.269 238.592 177.643 237.002 177.329C235.413 177.015 233.777 177.019 232.189 177.341C230.601 177.663 229.093 178.296 227.751 179.203C226.408 180.111 225.26 181.276 224.37 182.63Z" fill="white"/>
<path d="M425.83 231.65L410.13 229.53L420.51 151.72L390.23 147.64L316.78 215.26L312.92 244.19L376.21 252.73L373.05 276.4L403.33 280.48L406.49 256.82L422.19 258.94L425.83 231.65ZM346.41 220.93L385.17 185.6L379.85 225.44L346.41 220.93Z" fill="#407BFF"/>
<path d="M394.131 279.74H394.001C393.871 279.716 393.756 279.641 393.681 279.532C393.606 279.424 393.577 279.29 393.601 279.16L417.001 151.22C417.027 151.091 417.102 150.978 417.211 150.904C417.319 150.829 417.451 150.799 417.581 150.82C417.71 150.844 417.825 150.919 417.9 151.027C417.975 151.136 418.004 151.27 417.981 151.4L394.631 279.33C394.608 279.445 394.545 279.55 394.454 279.624C394.363 279.699 394.249 279.74 394.131 279.74Z" fill="#263238"/>
<path d="M414.83 153.37C414.822 153.587 414.728 153.793 414.569 153.941C414.409 154.089 414.197 154.168 413.98 154.16C413.763 154.152 413.557 154.058 413.409 153.898C413.261 153.739 413.182 153.527 413.19 153.31C413.198 153.092 413.292 152.887 413.451 152.739C413.611 152.591 413.823 152.512 414.04 152.52C414.257 152.528 414.463 152.622 414.611 152.781C414.759 152.941 414.838 153.152 414.83 153.37Z" fill="#263238"/>
<path d="M411.501 170.67C411.495 170.832 411.441 170.988 411.346 171.12C411.251 171.251 411.119 171.351 410.967 171.408C410.815 171.464 410.65 171.475 410.492 171.437C410.334 171.4 410.191 171.316 410.081 171.198C409.97 171.079 409.898 170.93 409.872 170.77C409.846 170.61 409.868 170.446 409.936 170.298C410.003 170.151 410.113 170.027 410.251 169.942C410.389 169.856 410.549 169.814 410.711 169.82C410.818 169.824 410.924 169.849 411.022 169.894C411.12 169.938 411.209 170.002 411.282 170.081C411.355 170.16 411.412 170.253 411.45 170.354C411.488 170.455 411.505 170.562 411.501 170.67Z" fill="#263238"/>
<path d="M408.171 188C408.167 188.108 408.142 188.214 408.097 188.312C408.052 188.41 407.989 188.498 407.91 188.571C407.831 188.645 407.738 188.702 407.637 188.739C407.536 188.777 407.429 188.794 407.321 188.79C407.214 188.787 407.108 188.764 407.01 188.72C406.912 188.676 406.824 188.613 406.75 188.535C406.677 188.457 406.619 188.365 406.582 188.265C406.544 188.164 406.527 188.057 406.531 187.95C406.533 187.841 406.558 187.734 406.602 187.635C406.646 187.536 406.71 187.447 406.789 187.372C406.868 187.298 406.961 187.24 407.062 187.202C407.164 187.164 407.272 187.146 407.381 187.15C407.597 187.16 407.801 187.255 407.949 187.414C408.097 187.573 408.176 187.783 408.171 188Z" fill="#263238"/>
<path d="M401.611 206C401.588 206.201 401.493 206.386 401.342 206.521C401.192 206.655 400.997 206.73 400.796 206.73C400.594 206.73 400.399 206.655 400.249 206.521C400.098 206.386 400.003 206.201 399.981 206C399.968 205.885 399.979 205.769 400.015 205.66C400.05 205.55 400.108 205.449 400.185 205.363C400.262 205.277 400.356 205.208 400.461 205.161C400.566 205.114 400.68 205.09 400.796 205.09C400.911 205.09 401.025 205.114 401.13 205.161C401.235 205.208 401.33 205.277 401.407 205.363C401.483 205.449 401.541 205.55 401.577 205.66C401.612 205.769 401.623 205.885 401.611 206Z" fill="#263238"/>
<path d="M401.501 222.57C401.498 222.678 401.474 222.785 401.43 222.883C401.385 222.982 401.322 223.071 401.242 223.144C401.163 223.218 401.07 223.275 400.968 223.312C400.867 223.349 400.759 223.365 400.651 223.36C400.489 223.354 400.332 223.3 400.201 223.205C400.069 223.11 399.969 222.978 399.913 222.826C399.856 222.674 399.846 222.509 399.883 222.351C399.921 222.193 400.004 222.05 400.123 221.94C400.242 221.829 400.391 221.757 400.551 221.731C400.711 221.705 400.875 221.727 401.022 221.795C401.17 221.862 401.294 221.972 401.379 222.11C401.464 222.248 401.507 222.408 401.501 222.57Z" fill="#263238"/>
<path d="M398.17 239.87C398.166 240.032 398.114 240.19 398.02 240.323C397.926 240.455 397.795 240.557 397.643 240.615C397.491 240.673 397.325 240.685 397.167 240.649C397.008 240.612 396.864 240.53 396.753 240.411C396.642 240.293 396.568 240.144 396.541 239.983C396.515 239.823 396.536 239.658 396.604 239.51C396.671 239.362 396.781 239.238 396.919 239.152C397.057 239.066 397.218 239.024 397.38 239.03C397.596 239.038 397.8 239.13 397.948 239.288C398.096 239.445 398.175 239.654 398.17 239.87Z" fill="#263238"/>
<path d="M394.841 257.17C394.833 257.388 394.739 257.595 394.58 257.744C394.421 257.894 394.209 257.975 393.991 257.97C393.883 257.966 393.777 257.941 393.679 257.896C393.581 257.851 393.493 257.788 393.42 257.709C393.346 257.63 393.289 257.537 393.252 257.436C393.214 257.335 393.197 257.228 393.201 257.12C393.204 257.012 393.228 256.906 393.273 256.808C393.317 256.71 393.38 256.621 393.459 256.547C393.537 256.473 393.629 256.416 393.73 256.378C393.831 256.339 393.938 256.322 394.046 256.325C394.153 256.328 394.259 256.353 394.358 256.397C394.456 256.441 394.544 256.504 394.618 256.583C394.692 256.661 394.75 256.753 394.788 256.854C394.826 256.955 394.844 257.062 394.841 257.17Z" fill="#263238"/>
<path d="M391.501 274.48C391.495 274.642 391.441 274.799 391.346 274.93C391.251 275.061 391.119 275.162 390.967 275.218C390.815 275.275 390.65 275.285 390.492 275.247C390.334 275.21 390.191 275.126 390.081 275.008C389.97 274.889 389.898 274.74 389.872 274.58C389.846 274.42 389.868 274.256 389.936 274.108C390.003 273.961 390.113 273.837 390.251 273.752C390.389 273.666 390.549 273.624 390.711 273.63C390.819 273.632 390.925 273.657 391.024 273.701C391.123 273.745 391.211 273.809 391.285 273.888C391.359 273.967 391.416 274.061 391.453 274.162C391.49 274.264 391.506 274.372 391.501 274.48Z" fill="#263238"/>
<path d="M400.79 206.45C400.678 206.45 400.569 206.411 400.481 206.34C400.394 206.269 400.333 206.17 400.31 206.06C400.296 205.996 400.294 205.929 400.305 205.864C400.316 205.799 400.34 205.737 400.375 205.681C400.411 205.625 400.457 205.577 400.511 205.539C400.565 205.501 400.626 205.474 400.69 205.46L403.17 204.93C403.236 204.915 403.303 204.914 403.368 204.926C403.434 204.937 403.497 204.962 403.553 204.999C403.609 205.035 403.657 205.082 403.694 205.137C403.731 205.192 403.757 205.255 403.77 205.32C403.784 205.384 403.784 205.451 403.771 205.515C403.759 205.58 403.734 205.641 403.698 205.696C403.661 205.75 403.615 205.798 403.56 205.834C403.506 205.871 403.445 205.897 403.38 205.91L400.9 206.44L400.79 206.45Z" fill="#263238"/>
<path d="M409.08 197.24C407.9 200.3 406.899 203.425 406.08 206.6C405.33 210.13 405.29 218.03 405.29 218.03" fill="#263238"/>
<path d="M405.29 218.53C405.157 218.525 405.032 218.469 404.939 218.374C404.846 218.279 404.792 218.153 404.79 218.02C404.79 217.7 404.85 210.02 405.6 206.5C406.414 203.297 407.416 200.145 408.6 197.06C408.62 196.994 408.653 196.933 408.698 196.881C408.743 196.828 408.798 196.786 408.859 196.756C408.921 196.726 408.989 196.709 409.057 196.706C409.126 196.703 409.195 196.714 409.259 196.739C409.323 196.764 409.381 196.802 409.43 196.85C409.479 196.898 409.517 196.956 409.543 197.02C409.568 197.084 409.58 197.153 409.578 197.221C409.576 197.29 409.56 197.358 409.53 197.42C408.352 200.456 407.35 203.558 406.53 206.71C405.8 210.15 405.75 217.95 405.74 218.03C405.741 218.154 405.695 218.274 405.612 218.367C405.528 218.459 405.414 218.517 405.29 218.53Z" fill="#263238"/>
<path d="M222.45 304.84C223.84 282.44 221.29 241.71 263.4 247.11C308.53 252.88 295.62 305.66 295.62 305.66L222.45 304.84Z" fill="#263238"/>
<path d="M251.51 291.38C261.661 291.38 269.89 283.151 269.89 273C269.89 262.849 261.661 254.62 251.51 254.62C241.359 254.62 233.13 262.849 233.13 273C233.13 283.151 241.359 291.38 251.51 291.38Z" fill="white"/>
<path d="M253.93 254.65C245.22 253.17 235.93 259.58 235 266.08L269.51 269.26C268.29 261.85 260.83 255.83 253.93 254.65Z" fill="#263238"/>
<path d="M265.58 272.54C265.33 277.35 262.71 281.12 259.73 280.96C256.75 280.8 254.53 276.79 254.73 271.96C254.93 267.13 257.6 263.38 260.58 263.54C263.56 263.7 265.82 267.74 265.58 272.54Z" fill="#263238"/>
<path d="M251.51 292.38C247.677 292.38 243.93 291.243 240.743 289.114C237.556 286.984 235.072 283.958 233.605 280.416C232.138 276.875 231.754 272.978 232.502 269.219C233.25 265.46 235.096 262.006 237.806 259.296C240.517 256.586 243.97 254.74 247.729 253.992C251.488 253.244 255.385 253.628 258.926 255.095C262.468 256.562 265.494 259.046 267.624 262.233C269.753 265.42 270.89 269.167 270.89 273C270.885 278.138 268.841 283.064 265.208 286.698C261.574 290.331 256.648 292.375 251.51 292.38ZM251.51 255.63C248.072 255.63 244.711 256.649 241.853 258.56C238.995 260.47 236.767 263.185 235.452 266.361C234.137 269.538 233.793 273.033 234.465 276.404C235.136 279.776 236.792 282.873 239.224 285.303C241.656 287.733 244.753 289.388 248.125 290.057C251.497 290.727 254.992 290.381 258.168 289.064C261.343 287.747 264.057 285.518 265.966 282.658C267.874 279.799 268.892 276.438 268.89 273C268.885 268.393 267.051 263.976 263.793 260.72C260.534 257.463 256.117 255.633 251.51 255.63Z" fill="#407BFF"/>
<path opacity="0.3" d="M290.49 304.28H290.37C290.305 304.266 290.245 304.239 290.191 304.201C290.137 304.163 290.092 304.114 290.057 304.058C290.023 304.002 290 303.94 289.99 303.875C289.98 303.81 289.983 303.744 290 303.68C290 303.55 293.22 289.99 289.91 276.28C289.878 276.147 289.9 276.008 289.971 275.891C290.043 275.775 290.157 275.692 290.29 275.66C290.422 275.628 290.562 275.65 290.678 275.722C290.795 275.793 290.878 275.907 290.91 276.04C294.28 290.04 291.03 303.78 291 303.91C290.97 304.021 290.903 304.118 290.81 304.185C290.717 304.253 290.604 304.286 290.49 304.28Z" fill="white"/>
<path opacity="0.3" d="M287.7 268.76C287.604 268.759 287.51 268.731 287.429 268.68C287.348 268.629 287.283 268.556 287.24 268.47C285.997 265.723 284.404 263.148 282.5 260.81C282.417 260.708 282.378 260.577 282.391 260.446C282.404 260.315 282.469 260.194 282.57 260.11C282.621 260.067 282.68 260.035 282.743 260.016C282.807 259.996 282.874 259.99 282.94 259.996C283.006 260.003 283.07 260.022 283.128 260.054C283.187 260.085 283.238 260.128 283.28 260.18C285.231 262.586 286.868 265.23 288.15 268.05C288.179 268.109 288.195 268.173 288.198 268.238C288.202 268.304 288.192 268.369 288.169 268.431C288.147 268.492 288.113 268.549 288.068 268.597C288.023 268.645 287.97 268.683 287.91 268.71C287.844 268.741 287.773 268.758 287.7 268.76Z" fill="white"/>
<path d="M128.73 409.92H128.36C127.034 409.883 125.777 409.32 124.865 408.357C123.954 407.393 123.463 406.106 123.5 404.78C123.537 403.454 124.1 402.197 125.063 401.285C126.027 400.374 127.314 399.883 128.64 399.92H128.73C131.62 399.92 138.57 396.41 153.11 373.49C153.496 372.881 154.009 372.363 154.614 371.971C155.219 371.579 155.901 371.323 156.615 371.219C157.328 371.116 158.055 371.168 158.746 371.372C159.438 371.575 160.077 371.926 160.62 372.4C172.039 382.216 184.492 390.76 197.76 397.88C198.374 398.159 198.925 398.56 199.38 399.058C199.835 399.556 200.185 400.14 200.408 400.777C200.632 401.414 200.724 402.089 200.679 402.762C200.634 403.435 200.454 404.092 200.149 404.693C199.844 405.295 199.42 405.829 198.903 406.262C198.387 406.696 197.787 407.02 197.142 407.216C196.496 407.412 195.818 407.475 195.147 407.402C194.477 407.329 193.828 407.121 193.24 406.79C180.909 400.237 169.252 392.487 158.44 383.65C146.25 402 137.21 409.92 128.73 409.92Z" fill="#263238"/>
<path d="M159.671 371.5H159.241C158.455 371.386 157.746 370.965 157.27 370.33C156.794 369.694 156.589 368.896 156.701 368.11C157.411 363.11 156.531 344.48 150.221 329.98C149.941 329.339 149.893 328.621 150.087 327.949C150.28 327.277 150.703 326.694 151.281 326.3C164.981 316.97 194.161 315.85 195.401 315.81C195.794 315.797 196.187 315.861 196.556 316C196.925 316.139 197.263 316.349 197.551 316.618C197.839 316.887 198.071 317.211 198.234 317.57C198.397 317.929 198.487 318.316 198.501 318.71C198.514 319.104 198.449 319.497 198.31 319.866C198.172 320.235 197.962 320.573 197.693 320.861C197.423 321.148 197.1 321.38 196.741 321.543C196.382 321.706 195.994 321.797 195.601 321.81C195.331 321.81 169.821 322.81 156.721 330.01C162.301 344.45 163.571 362.44 162.641 368.95C162.533 369.66 162.174 370.308 161.629 370.776C161.084 371.244 160.389 371.501 159.671 371.5Z" fill="#263238"/>
<path d="M164.71 367.62C162.71 362.91 153.71 363.44 148.44 367.48C145.62 369.63 141.8 376.12 141.44 378.48C141.32 379.041 141.338 379.622 141.492 380.174C141.647 380.727 141.933 381.233 142.326 381.65C142.72 382.068 143.209 382.383 143.751 382.569C144.294 382.755 144.873 382.807 145.44 382.72C148.89 382.42 153.62 377.41 153.62 377.41C150.47 380.5 154.54 382.68 160.62 378.21C163.94 375.72 166.94 372.89 164.71 367.62Z" fill="#407BFF"/>
<path d="M336.711 306.16C336.664 306.17 336.617 306.17 336.571 306.16C336.507 306.143 336.447 306.113 336.395 306.072C336.343 306.031 336.3 305.98 336.268 305.922C336.237 305.864 336.217 305.801 336.21 305.735C336.204 305.669 336.211 305.603 336.231 305.54C337.561 300.9 339.011 298.07 340.921 296.54C340.621 295.464 340.677 294.321 341.081 293.28C341.547 292.065 342.369 291.019 343.441 290.28C343.149 289.965 342.942 289.582 342.839 289.166C342.736 288.75 342.74 288.314 342.851 287.9C343.213 286.647 343.962 285.541 344.991 284.74C344.62 284.325 344.416 283.787 344.421 283.23C344.421 280.23 349.931 275.71 356.181 274.85C356.313 274.831 356.448 274.866 356.555 274.947C356.661 275.027 356.732 275.147 356.751 275.28C356.769 275.412 356.734 275.547 356.654 275.654C356.573 275.761 356.453 275.831 356.321 275.85C350.381 276.66 345.401 280.96 345.421 283.23C345.418 283.568 345.547 283.894 345.781 284.14C347.126 283.228 348.639 282.592 350.232 282.271C351.826 281.95 353.467 281.95 355.061 282.27C358.131 282.86 359.381 283.51 359.241 284.44C358.961 286.19 352.431 286.56 348.051 286.04C347.266 285.969 346.502 285.748 345.801 285.39C344.858 286.061 344.156 287.018 343.801 288.12C343.715 288.411 343.715 288.721 343.802 289.012C343.889 289.304 344.059 289.563 344.291 289.76C346.151 288.76 348.761 288.4 352.211 289.16C356.741 290.16 356.911 290.71 357.021 291.04C357.056 291.156 357.059 291.28 357.029 291.398C356.999 291.517 356.937 291.624 356.851 291.71C355.901 292.71 348.951 292.24 345.461 291.38C345.039 291.284 344.632 291.132 344.251 290.93C343.218 291.558 342.422 292.511 341.991 293.64C341.702 294.37 341.622 295.167 341.761 295.94C341.939 295.833 342.122 295.737 342.311 295.65C344.381 294.65 346.881 294.83 349.971 296.15C351.971 297.02 352.971 297.8 353.071 298.59C353.075 298.793 353.024 298.993 352.924 299.169C352.823 299.345 352.677 299.49 352.501 299.59C350.971 300.59 345.631 300.45 342.851 298.97C342.211 298.622 341.679 298.107 341.311 297.48C339.681 298.98 338.361 301.65 337.161 305.84C337.124 305.931 337.062 306.009 336.983 306.066C336.903 306.123 336.808 306.155 336.711 306.16ZM342.131 296.83C342.409 297.347 342.833 297.771 343.351 298.05C345.611 299.25 350.051 299.52 351.711 298.85C352.051 298.71 352.101 298.6 352.101 298.6C352.101 298.6 352.051 298.04 349.601 296.99C346.801 295.79 344.601 295.62 342.771 296.47C342.55 296.576 342.336 296.696 342.131 296.83ZM345.471 290.26L345.721 290.33C348.977 291.08 352.328 291.333 355.661 291.08C354.479 290.641 353.261 290.307 352.021 290.08C349.867 289.496 347.589 289.559 345.471 290.26ZM346.731 284.64C347.192 284.805 347.672 284.913 348.161 284.96C353.161 285.55 357.551 284.86 358.161 284.23C357.991 284.08 357.321 283.65 354.841 283.18C352.05 282.623 349.152 283.145 346.731 284.64Z" fill="#263238"/>
<path d="M206.53 408.25C207.19 408.04 206.97 407.4 206.23 407.4H192.69C166.91 404.67 148.9 408.33 160.25 409.19C171.6 410.05 159.45 409.87 151.16 413.01C142.87 416.15 212.81 416.94 219.16 413.01C225 409.39 197.39 411.18 206.53 408.25Z" fill="#263238"/>
<path d="M303.47 412.24L185.67 408.33L180.78 294.11L319.89 297.22L303.47 412.24Z" fill="#407BFF"/>
<path d="M222.45 410.05C222.324 410.05 222.202 410.003 222.11 409.918C222.017 409.833 221.96 409.715 221.95 409.59L212.51 294.87C212.501 294.738 212.545 294.608 212.631 294.507C212.716 294.406 212.838 294.343 212.97 294.33C213.101 294.324 213.23 294.368 213.33 294.454C213.431 294.539 213.495 294.659 213.51 294.79L223 409.51C223.005 409.576 222.998 409.642 222.978 409.704C222.957 409.767 222.925 409.825 222.882 409.876C222.839 409.926 222.787 409.967 222.728 409.997C222.67 410.027 222.606 410.045 222.54 410.05H222.45Z" fill="#263238"/>
<path d="M303.47 412.24L335.13 407.42L345.1 301.21L319.89 297.22L303.47 412.24Z" fill="#407BFF"/>
<path opacity="0.2" d="M303.47 412.24L335.13 407.42L345.1 301.21L319.89 297.22L303.47 412.24Z" fill="black"/>
<path d="M195.73 386.32L192.83 318.45C192.759 316.773 193.032 315.1 193.633 313.533C194.234 311.966 195.15 310.539 196.325 309.34C197.499 308.142 198.907 307.196 200.461 306.563C202.015 305.93 203.683 305.623 205.36 305.66L293.421 307.66C295.154 307.699 296.86 308.105 298.426 308.852C299.991 309.599 301.381 310.669 302.502 311.992C303.624 313.315 304.452 314.86 304.933 316.527C305.414 318.193 305.535 319.943 305.29 321.66L295.53 390C295.108 392.993 293.596 395.725 291.284 397.672C288.971 399.619 286.022 400.644 283 400.55L207.61 398.05C204.516 397.954 201.571 396.692 199.368 394.517C197.165 392.341 195.865 389.413 195.73 386.32Z" fill="#263238"/>
<path d="M205.25 326.49L218.87 326.92L218.76 330.43L210.23 330.16L210.15 332.78L218.06 333.03L217.95 336.39L210.04 336.13L209.94 339.38L218.71 339.66L218.59 343.38L204.72 342.94L205.25 326.49Z" fill="white"/>
<path d="M221.4 343.47L221.92 327.02L230.4 327.29C231.616 327.284 232.826 327.459 233.99 327.81C234.816 328.086 235.521 328.637 235.99 329.37C236.338 329.904 236.572 330.504 236.677 331.132C236.783 331.76 236.758 332.404 236.604 333.022C236.45 333.64 236.171 334.22 235.783 334.726C235.395 335.231 234.908 335.651 234.35 335.96C233.782 336.253 233.171 336.455 232.54 336.56C233.005 336.71 233.447 336.925 233.85 337.2C234.142 337.471 234.404 337.773 234.63 338.1C234.888 338.411 235.116 338.746 235.31 339.1L237.62 343.95L231.88 343.76L229.32 338.65C229.117 338.162 228.818 337.72 228.44 337.35C228.081 337.09 227.653 336.944 227.21 336.93H226.76L226.55 343.6L221.4 343.47ZM226.82 333.85L228.96 333.92C229.415 333.892 229.866 333.829 230.31 333.73C230.645 333.679 230.949 333.504 231.16 333.24C231.377 332.973 231.5 332.643 231.51 332.3C231.529 332.071 231.497 331.841 231.416 331.627C231.334 331.412 231.206 331.219 231.04 331.06C230.482 330.699 229.823 330.528 229.16 330.57L226.92 330.5L226.82 333.85Z" fill="white"/>
<path d="M239.28 344L239.8 327.55L248.27 327.82C249.486 327.813 250.696 327.988 251.86 328.34C252.687 328.613 253.394 329.165 253.86 329.9C254.368 330.701 254.606 331.644 254.54 332.59C254.543 333.388 254.33 334.172 253.923 334.859C253.517 335.545 252.932 336.109 252.23 336.49C251.661 336.781 251.051 336.984 250.42 337.09C250.882 337.239 251.32 337.455 251.72 337.73C252.019 337.993 252.285 338.292 252.51 338.62C252.766 338.933 252.993 339.267 253.19 339.62L255.5 344.46L249.76 344.28L247.2 339.17C246.996 338.683 246.697 338.241 246.32 337.87C245.963 337.6 245.528 337.453 245.08 337.45H244.64L244.42 344.13L239.28 344ZM244.69 334.38L246.84 334.44C247.295 334.423 247.747 334.363 248.19 334.26C248.523 334.211 248.824 334.035 249.03 333.77C249.254 333.508 249.378 333.175 249.38 332.83C249.402 332.602 249.372 332.372 249.292 332.157C249.213 331.943 249.085 331.749 248.92 331.59C248.363 331.221 247.697 331.048 247.03 331.1L244.8 331.03L244.69 334.38Z" fill="white"/>
<path d="M256.321 336.36C256.243 335.212 256.421 334.061 256.842 332.99C257.262 331.919 257.915 330.955 258.752 330.166C259.59 329.377 260.592 328.784 261.686 328.428C262.78 328.073 263.939 327.964 265.081 328.11C266.232 328.072 267.38 328.265 268.455 328.679C269.531 329.093 270.512 329.719 271.341 330.52C272.08 331.372 272.639 332.365 272.983 333.439C273.327 334.514 273.448 335.647 273.341 336.77C273.349 338.404 272.965 340.015 272.221 341.47C271.546 342.66 270.538 343.627 269.321 344.25C267.886 344.936 266.297 345.239 264.711 345.13C263.128 345.143 261.563 344.802 260.131 344.13C258.911 343.468 257.915 342.459 257.271 341.23C256.514 339.724 256.186 338.04 256.321 336.36ZM261.401 336.54C261.251 337.801 261.536 339.074 262.211 340.15C262.526 340.502 262.909 340.787 263.337 340.988C263.764 341.188 264.228 341.301 264.7 341.319C265.172 341.336 265.643 341.259 266.085 341.091C266.527 340.923 266.93 340.667 267.271 340.34C268.012 339.217 268.363 337.882 268.271 336.54C268.405 335.335 268.111 334.121 267.441 333.11C267.137 332.761 266.763 332.481 266.342 332.289C265.92 332.097 265.463 331.999 265.001 332C264.534 331.966 264.066 332.039 263.631 332.212C263.196 332.385 262.806 332.655 262.491 333C261.733 334.021 261.349 335.27 261.401 336.54Z" fill="white"/>
<path d="M275.91 345.21L276.43 328.75L284.9 329.02C286.116 329.018 287.325 329.193 288.49 329.54C289.313 329.821 290.018 330.37 290.49 331.1C290.995 331.902 291.233 332.844 291.17 333.79C291.175 334.59 290.963 335.376 290.556 336.064C290.149 336.753 289.563 337.318 288.86 337.7C288.288 337.983 287.679 338.182 287.05 338.29C287.513 338.442 287.951 338.661 288.35 338.94C288.649 339.203 288.914 339.502 289.14 339.83C289.398 340.141 289.625 340.476 289.82 340.83L292.13 345.68L286.39 345.5L283.83 340.38C283.627 339.895 283.327 339.456 282.95 339.09C282.591 338.822 282.158 338.671 281.71 338.66H281.27L281.05 345.34L275.91 345.21ZM281.32 335.58L283.47 335.65C283.925 335.633 284.377 335.572 284.82 335.47C285.151 335.417 285.451 335.242 285.66 334.98C285.896 334.701 286.021 334.345 286.01 333.98C286.032 333.754 286.002 333.525 285.922 333.312C285.842 333.099 285.715 332.907 285.55 332.75C284.992 332.38 284.327 332.208 283.66 332.26L281.43 332.19L281.32 335.58Z" fill="white"/>
<path d="M284 373.16C283.812 373.164 283.626 373.127 283.453 373.053C283.281 372.979 283.126 372.869 283 372.73L274.44 363.36L265.2 371.8C264.944 372.035 264.605 372.158 264.258 372.143C263.911 372.128 263.585 371.976 263.35 371.72L254.79 362.35L245.55 370.79C245.294 371.025 244.955 371.148 244.608 371.133C244.261 371.118 243.935 370.966 243.7 370.71L235.13 361.34L225.9 369.78C225.765 369.902 225.607 369.995 225.435 370.054C225.263 370.112 225.081 370.135 224.9 370.12C224.552 370.099 224.226 369.945 223.99 369.69L215.43 360.33L206.2 368.76C205.942 368.995 205.602 369.119 205.253 369.104C204.905 369.089 204.576 368.936 204.34 368.68C204.223 368.553 204.133 368.404 204.074 368.242C204.015 368.08 203.989 367.908 203.998 367.736C204.006 367.564 204.049 367.395 204.123 367.24C204.197 367.084 204.301 366.945 204.43 366.83L214.63 357.5C214.888 357.265 215.228 357.141 215.576 357.156C215.925 357.171 216.253 357.324 216.49 357.58L225.05 366.95L234.28 358.51C234.542 358.28 234.881 358.158 235.23 358.17C235.578 358.189 235.905 358.343 236.14 358.6L244.7 367.97L253.94 359.53C254.066 359.413 254.214 359.321 254.376 359.262C254.538 359.202 254.709 359.175 254.882 359.183C255.054 359.19 255.223 359.232 255.379 359.305C255.535 359.379 255.674 359.482 255.79 359.61L264.35 368.98L273.59 360.54C273.846 360.305 274.185 360.182 274.531 360.197C274.878 360.212 275.205 360.364 275.44 360.62L285 371C285.171 371.191 285.282 371.427 285.321 371.681C285.36 371.934 285.324 372.193 285.218 372.426C285.112 372.66 284.94 372.857 284.724 372.994C284.508 373.132 284.256 373.203 284 373.2V373.16Z" fill="white"/>
<path d="M125.75 414.67L119.49 411.68L113.91 384.51L116.94 381.18L125.75 414.67Z" fill="#407BFF"/>
<path d="M125.75 414.67L134.06 409.81L126.94 387.43L116.94 381.18L125.75 414.67Z" fill="#407BFF"/>
<path opacity="0.2" d="M125.75 414.67L134.06 409.81L126.94 387.43L116.94 381.18L125.75 414.67Z" fill="black"/>
<path d="M262 419.61H261.31C259.984 419.574 258.727 419.013 257.814 418.05C256.902 417.087 256.409 415.801 256.445 414.475C256.481 413.149 257.042 411.891 258.005 410.979C258.968 410.067 260.254 409.574 261.58 409.61C269.28 409.86 285.58 405.13 294.9 396.09C295.463 395.538 296.148 395.127 296.9 394.89C312.69 390.15 318.56 399.72 318.8 400.13L310.2 405.22C310.23 405.284 310.267 405.344 310.31 405.4C310.22 405.27 307.98 402.4 300.86 404.16C289.17 414.82 271.23 419.61 262 419.61Z" fill="#263238"/>
<path d="M261.39 426.25L243.18 425.11L241.75 391.53L266.22 392.44L261.39 426.25Z" fill="#407BFF"/>
<path d="M261.391 426.25L265.651 422.01L268.291 401.08L266.221 392.44L261.391 426.25Z" fill="#407BFF"/>
<path opacity="0.2" d="M261.391 426.25L265.651 422.01L268.291 401.08L266.221 392.44L261.391 426.25Z" fill="black"/>
<path d="M366.91 413.54C366.257 413.539 365.621 413.325 365.1 412.93C354.7 405.03 340.65 391 335.26 377.47C335.18 377.274 335.122 377.069 335.09 376.86C332.46 361.22 329.95 328.31 329.84 326.92C329.811 326.526 329.859 326.13 329.983 325.755C330.106 325.379 330.302 325.032 330.56 324.733C331.08 324.128 331.82 323.755 332.615 323.695C333.411 323.635 334.198 323.894 334.803 324.415C335.407 324.935 335.781 325.674 335.84 326.47C335.84 326.8 338.41 360.03 340.97 375.54C346.35 388.7 360.97 402.21 368.75 408.15C369.251 408.53 369.62 409.058 369.805 409.659C369.99 410.26 369.981 410.904 369.78 411.5C369.578 412.095 369.195 412.613 368.684 412.979C368.173 413.345 367.559 413.541 366.93 413.54H366.91Z" fill="#263238"/>
<path d="M380.78 415.05C378.46 415.05 375.83 414 372.96 411.93C372.316 411.463 371.883 410.759 371.757 409.974C371.632 409.188 371.823 408.384 372.29 407.74C372.757 407.095 373.461 406.663 374.246 406.537C375.032 406.412 375.836 406.603 376.48 407.07C378.96 408.86 380.31 409.07 380.78 409.07C381.576 409.07 382.339 409.386 382.901 409.949C383.464 410.511 383.78 411.274 383.78 412.07C383.78 412.866 383.464 413.629 382.901 414.191C382.339 414.754 381.576 415.07 380.78 415.07V415.05Z" fill="#263238"/>
<path d="M373.801 411.84C377.011 402.31 390.171 404.19 394.711 405.61C398.589 406.736 402.308 408.348 405.781 410.41C408.231 412.01 408.271 414.7 405.001 416.23C401.001 418.11 390.841 416.44 390.841 416.44C396.081 418.73 390.841 422.44 381.631 418.8C378.641 417.62 372.671 415.34 373.801 411.84Z" fill="#407BFF"/>
<path d="M341.86 331C340.67 339.1 333.96 345.07 328.5 344.27C323.04 343.47 322.82 336.27 324.01 328.13C325.2 319.99 327.36 314.13 332.82 314.93C338.28 315.73 343.05 322.93 341.86 331Z" fill="#263238"/>
<path d="M209.881 298.7C210.333 298.7 210.701 298.333 210.701 297.88C210.701 297.427 210.333 297.06 209.881 297.06C209.428 297.06 209.061 297.427 209.061 297.88C209.061 298.333 209.428 298.7 209.881 298.7Z" fill="#263238"/>
<path d="M218.21 303.78C218.21 303.942 218.162 304.101 218.072 304.236C217.982 304.37 217.854 304.475 217.704 304.538C217.554 304.6 217.389 304.616 217.23 304.584C217.071 304.553 216.925 304.474 216.81 304.36C216.696 304.245 216.618 304.099 216.586 303.94C216.554 303.781 216.571 303.616 216.633 303.466C216.695 303.316 216.8 303.188 216.935 303.098C217.07 303.008 217.228 302.96 217.39 302.96C217.608 302.96 217.816 303.046 217.97 303.2C218.124 303.354 218.21 303.562 218.21 303.78Z" fill="#263238"/>
<path d="M219.13 400.68C219.13 400.842 219.082 401.001 218.992 401.135C218.902 401.27 218.774 401.375 218.624 401.437C218.474 401.5 218.309 401.516 218.15 401.484C217.991 401.452 217.845 401.374 217.73 401.26C217.616 401.145 217.538 400.999 217.506 400.84C217.474 400.681 217.491 400.516 217.553 400.366C217.615 400.216 217.72 400.088 217.855 399.998C217.99 399.908 218.148 399.86 218.31 399.86C218.528 399.86 218.736 399.946 218.89 400.1C219.044 400.254 219.13 400.462 219.13 400.68Z" fill="#263238"/>
<path d="M226.64 406.59C226.64 406.752 226.592 406.911 226.502 407.046C226.412 407.18 226.284 407.286 226.134 407.348C225.984 407.41 225.819 407.426 225.66 407.394C225.501 407.363 225.355 407.285 225.24 407.17C225.125 407.055 225.047 406.909 225.016 406.75C224.984 406.591 225 406.426 225.062 406.276C225.124 406.126 225.23 405.998 225.364 405.908C225.499 405.818 225.658 405.77 225.82 405.77C226.037 405.77 226.246 405.856 226.4 406.01C226.554 406.164 226.64 406.373 226.64 406.59Z" fill="#263238"/>
<path d="M82.51 416.42C81.0704 416.353 79.6643 415.963 78.3955 415.279C77.1268 414.595 76.0279 413.635 75.18 412.47C75.1385 412.416 75.1082 412.355 75.0912 412.289C75.0742 412.223 75.0707 412.155 75.081 412.088C75.0912 412.021 75.115 411.957 75.1509 411.899C75.1869 411.841 75.2341 411.792 75.2898 411.753C75.3455 411.714 75.4085 411.687 75.475 411.674C75.5415 411.66 75.61 411.66 75.6765 411.674C75.7429 411.688 75.8059 411.715 75.8615 411.754C75.9171 411.793 75.9642 411.842 76 411.9C77.87 414.6 82 416.03 83.8 415.18C83.9803 415.103 84.141 414.987 84.27 414.84C83.3605 414.44 82.5636 413.822 81.9497 413.04C81.3357 412.259 80.9237 411.338 80.75 410.36C80.52 409.09 80.34 407.36 81.38 407.14C82.82 406.82 84.7 410.29 85.38 412.92C85.5032 413.355 85.5472 413.809 85.51 414.26C86.0868 414.432 86.6935 414.48 87.29 414.4C87.5588 414.379 87.8204 414.303 88.058 414.175C88.2956 414.048 88.504 413.872 88.67 413.66C88.0119 413.163 87.466 412.533 87.0679 411.811C86.6699 411.089 86.4286 410.292 86.36 409.47C85.98 406.73 86.27 406.26 86.57 406.02C86.6672 405.945 86.7832 405.899 86.9051 405.887C87.027 405.875 87.1498 405.896 87.26 405.95C88.33 406.4 89.62 410.28 89.87 412.48C89.9 412.709 89.9 412.941 89.87 413.17C90.3011 413.336 90.7582 413.424 91.22 413.43C92.068 413.463 92.9067 413.244 93.63 412.8C93.49 412.71 93.36 412.61 93.23 412.51C92.23 411.62 91.77 410.2 91.95 408.18C92.09 406.61 92.44 405.75 93.07 405.48C93.2733 405.398 93.4958 405.378 93.7107 405.42C93.9255 405.463 94.1233 405.567 94.28 405.72C94.9551 406.465 95.4595 407.349 95.7583 408.309C96.0571 409.269 96.143 410.283 96.01 411.28C95.9232 411.695 95.7494 412.087 95.5 412.43C97.34 412.75 99.92 412.23 102.15 411.68C102.216 411.664 102.284 411.662 102.351 411.672C102.417 411.683 102.481 411.706 102.539 411.742C102.596 411.777 102.646 411.823 102.686 411.878C102.726 411.932 102.754 411.994 102.77 412.06C102.786 412.126 102.788 412.194 102.778 412.26C102.767 412.327 102.744 412.391 102.708 412.449C102.673 412.506 102.627 412.556 102.572 412.596C102.518 412.636 102.456 412.664 102.39 412.68C99.68 413.35 96.76 413.9 94.7 413.3C93.6945 414.064 92.4631 414.472 91.2 414.46C90.6395 414.453 90.0846 414.348 89.56 414.15C89.3274 414.51 89.0153 414.811 88.6477 415.032C88.2802 415.252 87.867 415.385 87.44 415.42C86.6883 415.517 85.9247 415.452 85.2 415.23C84.9667 415.623 84.6174 415.934 84.2 416.12C83.6637 416.336 83.0881 416.439 82.51 416.42ZM81.65 408.14C81.5117 408.82 81.5391 409.523 81.73 410.19C81.8711 410.99 82.2029 411.743 82.6973 412.387C83.1917 413.032 83.8341 413.547 84.57 413.89C84.556 413.653 84.5158 413.418 84.45 413.19C83.67 410.33 82.17 408.36 81.65 408.14ZM87.22 407.27C87.2265 407.96 87.2834 408.648 87.39 409.33C87.5003 410.549 88.0388 411.69 88.91 412.55C88.6639 410.704 88.0917 408.916 87.22 407.27ZM93.51 406.4C93.51 406.4 93.13 406.59 92.99 408.26C92.85 409.93 93.14 411.08 93.92 411.75C94.1046 411.899 94.306 412.027 94.52 412.13C94.783 411.849 94.969 411.504 95.06 411.13C95.2381 409.556 94.8129 407.973 93.87 406.7C93.66 406.44 93.54 406.4 93.51 406.4Z" fill="#263238"/>
<path d="M228.87 423.98L231.58 419.28L228.87 414.58H225.97L227.61 419.28L225.97 423.98H228.87Z" fill="#263238"/>
<path d="M226.16 421.73C225.826 421.751 225.491 421.704 225.176 421.591C224.86 421.478 224.572 421.301 224.327 421.072C224.083 420.843 223.888 420.566 223.755 420.259C223.622 419.951 223.554 419.62 223.554 419.285C223.554 418.95 223.622 418.619 223.755 418.311C223.888 418.004 224.083 417.727 224.327 417.498C224.572 417.269 224.86 417.092 225.176 416.979C225.491 416.866 225.826 416.819 226.16 416.84L221.56 415.92L220.33 419.64L222.39 422.78L226.16 421.73Z" fill="#263238"/>
<path d="M226.56 414.58H221.13L218.42 419.28L221.13 423.98H226.56L229.27 419.28L226.56 414.58ZM223.85 421.73C223.365 421.732 222.89 421.59 222.486 421.322C222.082 421.054 221.766 420.672 221.579 420.224C221.392 419.777 221.342 419.284 221.436 418.808C221.529 418.332 221.762 417.895 222.104 417.551C222.446 417.207 222.883 416.973 223.358 416.878C223.834 416.782 224.327 416.83 224.775 417.015C225.223 417.201 225.607 417.515 225.876 417.918C226.146 418.321 226.29 418.795 226.29 419.28C226.29 419.928 226.033 420.55 225.576 421.009C225.119 421.468 224.498 421.727 223.85 421.73Z" fill="#407BFF"/>
<path d="M417.89 414.26L415.88 410.77L417.89 407.28H420.04L418.83 410.77L420.04 414.26H417.89Z" fill="#407BFF"/>
<path d="M419.9 412.59C420.15 412.609 420.401 412.575 420.637 412.493C420.873 412.41 421.09 412.279 421.274 412.109C421.457 411.938 421.603 411.732 421.703 411.503C421.804 411.273 421.855 411.025 421.855 410.775C421.855 410.525 421.804 410.277 421.703 410.048C421.603 409.818 421.457 409.612 421.274 409.441C421.09 409.271 420.873 409.14 420.637 409.057C420.401 408.975 420.15 408.941 419.9 408.96L423.32 408.28L424.23 411.04L422.71 413.37L419.9 412.59Z" fill="#407BFF"/>
<path d="M419.61 407.28H423.61L425.61 410.77L423.61 414.26H419.61L417.61 410.77L419.61 407.28ZM421.61 412.59C421.971 412.592 422.324 412.487 422.624 412.288C422.925 412.089 423.16 411.806 423.299 411.473C423.438 411.141 423.476 410.775 423.407 410.421C423.338 410.067 423.165 409.742 422.911 409.487C422.657 409.231 422.332 409.057 421.979 408.986C421.626 408.915 421.259 408.95 420.926 409.088C420.593 409.225 420.308 409.458 420.108 409.758C419.907 410.057 419.8 410.41 419.8 410.77C419.799 411.009 419.845 411.247 419.936 411.468C420.027 411.689 420.161 411.891 420.33 412.06C420.5 412.229 420.701 412.363 420.922 412.454C421.144 412.545 421.381 412.591 421.62 412.59H421.61Z" fill="#263238"/>
<path d="M343 418.9H347.52C348.086 418.897 348.628 418.671 349.027 418.27C349.426 417.869 349.65 417.326 349.65 416.76C349.65 416.194 349.426 415.651 349.027 415.25C348.628 414.849 348.086 414.623 347.52 414.62H343C342.433 414.62 341.888 414.845 341.487 415.247C341.086 415.648 340.86 416.192 340.86 416.76C340.86 417.327 341.086 417.872 341.487 418.273C341.888 418.674 342.433 418.9 343 418.9Z" fill="#263238"/>
<path d="M335.73 414.86C336.149 414.097 336.783 413.474 337.552 413.067C338.322 412.659 339.194 412.486 340.06 412.569C340.927 412.651 341.751 412.986 342.43 413.531C343.109 414.076 343.613 414.807 343.881 415.636C344.149 416.464 344.169 417.353 343.938 418.192C343.707 419.031 343.236 419.785 342.582 420.359C341.928 420.934 341.12 421.305 340.257 421.426C339.395 421.547 338.517 421.412 337.73 421.04C336.648 420.482 335.831 419.52 335.456 418.362C335.082 417.204 335.18 415.946 335.73 414.86Z" fill="#407BFF"/>
<path d="M336.949 421.039L338.188 421.623L342.495 412.487L341.256 411.903L336.949 421.039Z" fill="#263238"/>
</svg>
