<svg width="32" height="32" viewBox="0 0 32 32" fill="none" xmlns="http://www.w3.org/2000/svg">
<path d="M26.5 4H21V3C21 1.34312 19.6569 0 18 0H14C12.3431 0 11 1.34312 11 3V4H5.5C4.11931 4 3 5.11931 3 6.5V8.5C3 9.05231 3.44769 9.5 4 9.5H28C28.5523 9.5 29 9.05231 29 8.5V6.5C29 5.11931 27.8807 4 26.5 4ZM13 3C13 2.44875 13.4488 2 14 2H18C18.5512 2 19 2.44875 19 3V4H13V3ZM4.89775 11.5C4.85546 11.5 4.81361 11.5086 4.77474 11.5252C4.73587 11.5419 4.70078 11.5663 4.67159 11.5969C4.64241 11.6275 4.61975 11.6637 4.60497 11.7033C4.59019 11.7429 4.58361 11.7851 4.58563 11.8274L5.41062 29.1425C5.48687 30.745 6.80312 32 8.40687 32H23.5931C25.1969 32 26.5131 30.745 26.5894 29.1425L27.4144 11.8274C27.4164 11.7851 27.4098 11.7429 27.395 11.7033C27.3803 11.6637 27.3576 11.6275 27.3284 11.5969C27.2992 11.5663 27.2641 11.5419 27.2253 11.5252C27.1864 11.5086 27.1445 11.5 27.1022 11.5H4.89775ZM20 14C20 13.4475 20.4475 13 21 13C21.5525 13 22 13.4475 22 14V27C22 27.5525 21.5525 28 21 28C20.4475 28 20 27.5525 20 27V14ZM15 14C15 13.4475 15.4475 13 16 13C16.5525 13 17 13.4475 17 14V27C17 27.5525 16.5525 28 16 28C15.4475 28 15 27.5525 15 27V14ZM10 14C10 13.4475 10.4475 13 11 13C11.5525 13 12 13.4475 12 14V27C12 27.5525 11.5525 28 11 28C10.4475 28 10 27.5525 10 27V14Z" fill="#C12127"/>
</svg>
