<svg width="32" height="32" viewBox="0 0 32 32" fill="none" xmlns="http://www.w3.org/2000/svg">
<g clip-path="url(#clip0_378_165)">
<path d="M25.3333 16.0615C24.5959 16.0615 24 16.659 24 17.3948V28.0615C24 28.7962 23.4026 29.3948 22.6667 29.3948H4C3.26394 29.3948 2.66675 28.7962 2.66675 28.0615V9.39477C2.66675 8.66015 3.26394 8.06152 4 8.06152H14.6667C15.4041 8.06152 16 7.46415 16 6.72828C16 5.99221 15.4041 5.39478 14.6667 5.39478H4C1.79469 5.39478 0 7.18946 0 9.39477V28.0615C0 30.2669 1.79469 32.0615 4 32.0615H22.6667C24.8721 32.0615 26.6667 30.2669 26.6667 28.0615V17.3948C26.6667 16.6575 26.0705 16.0615 25.3333 16.0615Z" fill="#213C90"/>
<path d="M12.501 14.8468C12.4084 14.9399 12.3449 15.058 12.3184 15.1867L11.3758 19.9015C11.3318 20.12 11.4011 20.3454 11.5584 20.504C11.6205 20.5659 11.6941 20.6149 11.7751 20.6483C11.8561 20.6817 11.9429 20.6988 12.0305 20.6987C12.073 20.6987 12.1172 20.6947 12.1611 20.6855L16.8745 19.7429C17.0051 19.716 17.1238 19.6535 17.2158 19.56L27.7652 9.01061L23.0518 4.29748L12.501 14.8468ZM31.0237 1.03755C29.7239 -0.262516 27.6091 -0.262516 26.3103 1.03755L24.4651 2.88273L29.1785 7.59611L31.0237 5.75067C31.6531 5.12273 31.9998 4.2853 31.9998 3.39467C31.9998 2.50405 31.6531 1.66667 31.0237 1.03755Z" fill="#213C90"/>
</g>
<defs>
<clipPath id="clip0_378_165">
<rect width="32" height="32" fill="white"/>
</clipPath>
</defs>
</svg>
