<svg width="32" height="32" viewBox="0 0 32 32" fill="none" xmlns="http://www.w3.org/2000/svg">
<g clip-path="url(#clip0_1015_834)">
<path d="M4.11515 14.2454C5.08068 7.68408 11.1824 3.14777 17.7438 4.1133C19.9824 4.4427 22.0823 5.3979 23.8018 6.86883L22.2539 8.41669C21.7351 8.93561 21.7353 9.77689 22.2542 10.2957C22.5033 10.5447 22.8411 10.6846 23.1933 10.6847H29.2865C30.0203 10.6847 30.6151 10.0898 30.6151 9.35606V3.26287C30.6149 2.52908 30.02 1.93436 29.2862 1.93449C28.934 1.93455 28.5962 2.0745 28.3471 2.32349L26.6198 4.05071C20.033 -1.82076 9.93357 -1.24094 4.06209 5.34583C1.98199 7.67929 0.632126 10.5717 0.179722 13.6648C0.00135092 14.7614 0.745663 15.7949 1.84217 15.9733C1.94095 15.9894 2.04072 15.998 2.1408 15.9993C3.14402 15.9884 3.98611 15.2404 4.11515 14.2454Z" fill="white"/>
<path d="M29.8589 15.9993C28.8557 16.0101 28.0136 16.7582 27.8846 17.7531C26.9191 24.3144 20.8173 28.8507 14.256 27.8853C12.0174 27.5559 9.91742 26.6007 8.19798 25.1297L9.74583 23.5819C10.2646 23.063 10.2645 22.2217 9.74552 21.7029C9.49647 21.4539 9.15866 21.314 8.80646 21.3139H2.71339C1.9796 21.3139 1.38477 21.9087 1.38477 22.6425V28.7357C1.38495 29.4695 1.97992 30.0642 2.7137 30.0641C3.0659 30.064 3.40371 29.9241 3.65277 29.6751L5.37999 27.9479C11.9652 33.82 22.0639 33.2419 27.936 26.6567C30.0173 24.3227 31.3678 21.4293 31.82 18.3351C31.9992 17.2386 31.2555 16.2046 30.1591 16.0255C30.0599 16.0092 29.9595 16.0005 29.8589 15.9993Z" fill="white"/>
</g>
<defs>
<clipPath id="clip0_1015_834">
<rect width="32" height="32" fill="white"/>
</clipPath>
</defs>
</svg>
